#!OML:ASF C:\Vicon Data\Big\jianyuan-13\jianyuan\Session 1\Capture.male.ASF
:FULLY-SPECIFIED
:DEGREES
14
root -7.738020 17.698015 -23.971727 10.188259 -5.148437 3.197226
lowerback -13.020948 -1.725424 -4.914574 
upperback 2.518423 -1.399894 -0.850392 
thorax 10.172219 -0.932390 1.553658 
lowerneck -4.308909 -0.723831 1.486774 
upperneck 23.285519 -0.627219 -2.631270 
head 7.853685 -0.413506 -1.173242 
rclavicle 0.000000 0.000000 
rhumerus -39.747229 -23.626173 -73.350329 
rradius 26.374360 
rwrist 37.212376 
rhand -17.378254 -16.501817 
rfingers 0.000000 
rthumb 8.870327 -46.295347 
lclavicle 0.000000 0.000000 
lhumerus -11.233197 -0.448169 93.683324 
lradius 48.372424 
lwrist -27.975380 
lhand -19.877837 3.033476 
lfingers 0.000000 
lthumb 6.457746 32.915053 
rfemur -33.497634 1.215531 22.596497 
rtibia 26.761941 
rfoot -8.143320 -11.508220 
rtoes -20.746469 
lfemur -0.895576 -4.201666 -28.953478 
ltibia 17.910519 
lfoot -11.311234 -5.223593 
ltoes -28.559531 
15
root -7.738343 17.698138 -23.969751 10.191343 -5.146582 3.196813
lowerback -13.023480 -1.726326 -4.914328 
upperback 2.517520 -1.401108 -0.849390 
thorax 10.172799 -0.932985 1.554297 
lowerneck -4.306364 -0.726102 1.489474 
upperneck 23.284335 -0.629354 -2.637483 
head 7.852726 -0.414835 -1.175896 
rclavicle 0.000000 0.000000 
rhumerus -39.743631 -23.617278 -73.357659 
rradius 26.380200 
rwrist 37.192925 
rhand -17.381443 -16.507661 
rfingers 0.000000 
rthumb 8.867249 -46.301322 
lclavicle 0.000000 0.000000 
lhumerus -11.236468 -0.449773 93.684533 
lradius 48.368226 
lwrist -27.982000 
lhand -19.877032 3.029261 
lfingers 0.000000 
lthumb 6.458524 32.910813 
rfemur -33.494665 1.218458 22.596068 
rtibia 26.759887 
rfoot -8.142352 -11.514378 
rtoes -20.742524 
lfemur -0.898786 -4.201001 -28.950648 
ltibia 17.922027 
lfoot -11.302858 -5.226668 
ltoes -28.574491 
16
root -7.738666 17.698260 -23.967774 10.194427 -5.144727 3.196400
lowerback -13.026012 -1.727228 -4.914083 
upperback 2.516616 -1.402323 -0.848388 
thorax 10.173379 -0.933580 1.554936 
lowerneck -4.303818 -0.728374 1.492175 
upperneck 23.283151 -0.631489 -2.643696 
head 7.851768 -0.416164 -1.178550 
rclavicle 0.000000 0.000000 
rhumerus -39.740033 -23.608384 -73.364990 
rradius 26.386040 
rwrist 37.173473 
rhand -17.384633 -16.513505 
rfingers 0.000000 
rthumb 8.864171 -46.307296 
lclavicle 0.000000 0.000000 
lhumerus -11.239739 -0.451376 93.685741 
lradius 48.364028 
lwrist -27.988620 
lhand -19.876227 3.025046 
lfingers 0.000000 
lthumb 6.459301 32.906574 
rfemur -33.491696 1.221385 22.595639 
rtibia 26.757833 
rfoot -8.141384 -11.520537 
rtoes -20.738579 
lfemur -0.901996 -4.200336 -28.947818 
ltibia 17.933536 
lfoot -11.294482 -5.229743 
ltoes -28.589450 
17
root -7.738989 17.698383 -23.965797 10.197510 -5.142872 3.195987
lowerback -13.028544 -1.728129 -4.913837 
upperback 2.515713 -1.403537 -0.847385 
thorax 10.173959 -0.934175 1.555575 
lowerneck -4.301273 -0.730645 1.494875 
upperneck 23.281966 -0.633623 -2.649909 
head 7.850809 -0.417493 -1.181203 
rclavicle 0.000000 0.000000 
rhumerus -39.736435 -23.599489 -73.372321 
rradius 26.391880 
rwrist 37.154021 
rhand -17.387822 -16.519349 
rfingers 0.000000 
rthumb 8.861093 -46.313271 
lclavicle 0.000000 0.000000 
lhumerus -11.243011 -0.452980 93.686950 
lradius 48.359829 
lwrist -27.995240 
lhand -19.875423 3.020832 
lfingers 0.000000 
lthumb 6.460079 32.902335 
rfemur -33.488727 1.224311 22.595210 
rtibia 26.755778 
rfoot -8.140416 -11.526695 
rtoes -20.734634 
lfemur -0.905205 -4.199670 -28.944987 
ltibia 17.945044 
lfoot -11.286106 -5.232818 
ltoes -28.604409 
